<mxfile host="app.diagrams.net" modified="2024-01-31T07:31:33.743Z" agent="Mozilla/5.0 (Macintosh; Intel Mac OS X 10_15_7) AppleWebKit/537.36 (KHTML, like Gecko) Chrome/121.0.0.0 Safari/537.36" etag="dhP6YLYzTDefry4Fgltn" version="21.7.5" type="github">
  <diagram name="Page-1" id="hIceaoWqDKeVBD2IQ5cP">
    <mxGraphModel dx="1064" dy="599" grid="1" gridSize="10" guides="1" tooltips="1" connect="0" arrows="1" fold="1" page="1" pageScale="1" pageWidth="850" pageHeight="1100" math="0" shadow="0">
      <root>
        <mxCell id="0" />
        <mxCell id="1" parent="0" />
        <mxCell id="7SaJIltF-yHCowIfkqHj-1" value="Region US West (N.California) us-west-1" style="points=[[0,0],[0.25,0],[0.5,0],[0.75,0],[1,0],[1,0.25],[1,0.5],[1,0.75],[1,1],[0.75,1],[0.5,1],[0.25,1],[0,1],[0,0.75],[0,0.5],[0,0.25]];outlineConnect=0;gradientColor=none;html=1;whiteSpace=wrap;fontSize=12;fontStyle=0;container=1;pointerEvents=1;collapsible=0;recursiveResize=0;shape=mxgraph.aws4.group;grIcon=mxgraph.aws4.group_region;strokeColor=#147EBA;fillColor=none;verticalAlign=top;align=left;spacingLeft=30;fontColor=#147EBA;dashed=1;strokeWidth=2;opacity=70;movableLabel=0;metaEdit=0;noLabel=0;" vertex="1" parent="1">
          <mxGeometry x="100" y="70" width="710" height="500" as="geometry" />
        </mxCell>
        <mxCell id="7SaJIltF-yHCowIfkqHj-6" value="VPC - 10.0.0.0/16" style="sketch=0;outlineConnect=0;html=1;whiteSpace=wrap;fontSize=12;fontStyle=0;shape=mxgraph.aws4.group;grIcon=mxgraph.aws4.group_vpc;verticalAlign=top;align=left;spacingLeft=30;dashed=0;opacity=70;" vertex="1" parent="7SaJIltF-yHCowIfkqHj-1">
          <mxGeometry x="50" y="50" width="630" height="400" as="geometry" />
        </mxCell>
        <mxCell id="7SaJIltF-yHCowIfkqHj-9" value="&lt;font style=&quot;font-size: 11px;&quot;&gt;Availability Zone - us-west-1a&lt;/font&gt;" style="fillColor=none;strokeColor=#147EBA;dashed=1;verticalAlign=top;fontStyle=0;fontColor=#147EBA;whiteSpace=wrap;html=1;align=right;movableLabel=0;" vertex="1" parent="7SaJIltF-yHCowIfkqHj-1">
          <mxGeometry x="85" y="80" width="560" height="140" as="geometry">
            <mxPoint x="-6" y="-5" as="offset" />
          </mxGeometry>
        </mxCell>
        <mxCell id="7SaJIltF-yHCowIfkqHj-10" value="&lt;font style=&quot;font-size: 11px;&quot;&gt;Availability Zone - us-west-1b&lt;/font&gt;" style="fillColor=none;strokeColor=#147EBA;dashed=1;verticalAlign=top;fontStyle=0;fontColor=#147EBA;whiteSpace=wrap;html=1;backgroundOutline=0;pointerEvents=0;portConstraintRotation=0;align=right;movableLabel=1;" vertex="1" parent="7SaJIltF-yHCowIfkqHj-1">
          <mxGeometry x="85" y="278" width="560" height="152" as="geometry">
            <mxPoint x="-6" y="127" as="offset" />
          </mxGeometry>
        </mxCell>
        <mxCell id="7SaJIltF-yHCowIfkqHj-15" value="&lt;font style=&quot;font-size: 10px;&quot;&gt;Public Data subnet AZ1&lt;/font&gt;" style="points=[[0,0],[0.25,0],[0.5,0],[0.75,0],[1,0],[1,0.25],[1,0.5],[1,0.75],[1,1],[0.75,1],[0.5,1],[0.25,1],[0,1],[0,0.75],[0,0.5],[0,0.25]];outlineConnect=0;gradientColor=none;html=1;whiteSpace=wrap;fontSize=12;fontStyle=0;container=1;pointerEvents=0;collapsible=0;recursiveResize=0;shape=mxgraph.aws4.group;grIcon=mxgraph.aws4.group_security_group;grStroke=0;strokeColor=#147EBA;fillColor=#E6F2F8;verticalAlign=top;align=left;spacingLeft=30;fontColor=#147EBA;dashed=0;noLabel=0;movableLabel=0;" vertex="1" parent="7SaJIltF-yHCowIfkqHj-1">
          <mxGeometry x="480" y="94.5" width="140" height="108" as="geometry">
            <mxPoint y="-5" as="offset" />
          </mxGeometry>
        </mxCell>
        <mxCell id="7SaJIltF-yHCowIfkqHj-18" value="&lt;font style=&quot;font-size: 10px;&quot;&gt;Private App subnet AZ1&lt;/font&gt;" style="points=[[0,0],[0.25,0],[0.5,0],[0.75,0],[1,0],[1,0.25],[1,0.5],[1,0.75],[1,1],[0.75,1],[0.5,1],[0.25,1],[0,1],[0,0.75],[0,0.5],[0,0.25]];outlineConnect=0;gradientColor=none;html=1;whiteSpace=wrap;fontSize=12;fontStyle=0;container=1;pointerEvents=0;collapsible=0;recursiveResize=0;shape=mxgraph.aws4.group;grIcon=mxgraph.aws4.group_security_group;grStroke=0;strokeColor=#147EBA;fillColor=#E6F2F8;verticalAlign=top;align=left;spacingLeft=30;fontColor=#147EBA;dashed=0;noLabel=0;movableLabel=0;" vertex="1" parent="7SaJIltF-yHCowIfkqHj-1">
          <mxGeometry x="299" y="94.5" width="140" height="108" as="geometry">
            <mxPoint y="-5" as="offset" />
          </mxGeometry>
        </mxCell>
        <mxCell id="7SaJIltF-yHCowIfkqHj-19" value="&lt;font style=&quot;font-size: 10px;&quot;&gt;Public subnet AZ1&lt;br&gt;&lt;/font&gt;" style="points=[[0,0],[0.25,0],[0.5,0],[0.75,0],[1,0],[1,0.25],[1,0.5],[1,0.75],[1,1],[0.75,1],[0.5,1],[0.25,1],[0,1],[0,0.75],[0,0.5],[0,0.25]];outlineConnect=0;gradientColor=none;html=1;whiteSpace=wrap;fontSize=12;fontStyle=0;container=1;pointerEvents=0;collapsible=0;recursiveResize=0;shape=mxgraph.aws4.group;grIcon=mxgraph.aws4.group_security_group;grStroke=0;strokeColor=#147EBA;fillColor=#E6F2F8;verticalAlign=top;align=left;spacingLeft=30;fontColor=#147EBA;dashed=0;noLabel=0;movableLabel=0;" vertex="1" parent="7SaJIltF-yHCowIfkqHj-1">
          <mxGeometry x="120" y="94.5" width="140" height="108" as="geometry">
            <mxPoint y="-5" as="offset" />
          </mxGeometry>
        </mxCell>
        <mxCell id="7SaJIltF-yHCowIfkqHj-32" value="" style="outlineConnect=0;dashed=0;verticalLabelPosition=bottom;verticalAlign=top;align=center;html=1;shape=mxgraph.aws3.vpc_nat_gateway;fillColor=#F58536;gradientColor=none;" vertex="1" parent="7SaJIltF-yHCowIfkqHj-19">
          <mxGeometry x="40.5" y="38" width="29" height="32" as="geometry" />
        </mxCell>
        <mxCell id="7SaJIltF-yHCowIfkqHj-33" value="&lt;font style=&quot;font-size: 11px;&quot;&gt;NAT Gateway&lt;/font&gt;" style="text;html=1;align=center;verticalAlign=middle;resizable=0;points=[];autosize=1;strokeColor=none;fillColor=none;" vertex="1" parent="7SaJIltF-yHCowIfkqHj-19">
          <mxGeometry x="13" y="16.5" width="90" height="30" as="geometry" />
        </mxCell>
        <mxCell id="7SaJIltF-yHCowIfkqHj-21" value="&lt;font style=&quot;font-size: 10px;&quot;&gt;Public subnet AZ2&lt;/font&gt;" style="points=[[0,0],[0.25,0],[0.5,0],[0.75,0],[1,0],[1,0.25],[1,0.5],[1,0.75],[1,1],[0.75,1],[0.5,1],[0.25,1],[0,1],[0,0.75],[0,0.5],[0,0.25]];outlineConnect=0;gradientColor=none;html=1;whiteSpace=wrap;fontSize=12;fontStyle=0;container=1;pointerEvents=0;collapsible=0;recursiveResize=0;shape=mxgraph.aws4.group;grIcon=mxgraph.aws4.group_security_group;grStroke=0;strokeColor=#147EBA;fillColor=#E6F2F8;verticalAlign=top;align=left;spacingLeft=30;fontColor=#147EBA;dashed=0;noLabel=0;movableLabel=1;" vertex="1" parent="7SaJIltF-yHCowIfkqHj-1">
          <mxGeometry x="118" y="294.5" width="140" height="108" as="geometry">
            <mxPoint x="-29" y="84" as="offset" />
          </mxGeometry>
        </mxCell>
        <mxCell id="7SaJIltF-yHCowIfkqHj-22" value="&lt;font style=&quot;font-size: 10px;&quot;&gt;Private App subnet AZ2&lt;/font&gt;" style="points=[[0,0],[0.25,0],[0.5,0],[0.75,0],[1,0],[1,0.25],[1,0.5],[1,0.75],[1,1],[0.75,1],[0.5,1],[0.25,1],[0,1],[0,0.75],[0,0.5],[0,0.25]];outlineConnect=0;gradientColor=none;html=1;whiteSpace=wrap;fontSize=12;fontStyle=0;container=1;pointerEvents=0;collapsible=0;recursiveResize=0;shape=mxgraph.aws4.group;grIcon=mxgraph.aws4.group_security_group;grStroke=0;strokeColor=#147EBA;fillColor=#E6F2F8;verticalAlign=top;align=left;spacingLeft=30;fontColor=#147EBA;dashed=0;noLabel=0;movableLabel=1;" vertex="1" parent="7SaJIltF-yHCowIfkqHj-1">
          <mxGeometry x="297" y="295.5" width="143" height="104.5" as="geometry">
            <mxPoint x="-28" y="81" as="offset" />
          </mxGeometry>
        </mxCell>
        <mxCell id="7SaJIltF-yHCowIfkqHj-23" value="&lt;font style=&quot;font-size: 10px;&quot;&gt;Public Data subnet AZ2&lt;/font&gt;" style="points=[[0,0],[0.25,0],[0.5,0],[0.75,0],[1,0],[1,0.25],[1,0.5],[1,0.75],[1,1],[0.75,1],[0.5,1],[0.25,1],[0,1],[0,0.75],[0,0.5],[0,0.25]];outlineConnect=0;gradientColor=none;html=1;whiteSpace=wrap;fontSize=12;fontStyle=0;container=1;pointerEvents=0;collapsible=0;recursiveResize=0;shape=mxgraph.aws4.group;grIcon=mxgraph.aws4.group_security_group;grStroke=0;strokeColor=#147EBA;fillColor=#E6F2F8;verticalAlign=top;align=left;spacingLeft=30;fontColor=#147EBA;dashed=0;noLabel=0;movableLabel=1;" vertex="1" parent="7SaJIltF-yHCowIfkqHj-1">
          <mxGeometry x="478" y="294.5" width="140" height="108" as="geometry">
            <mxPoint x="-29" y="84" as="offset" />
          </mxGeometry>
        </mxCell>
        <mxCell id="7SaJIltF-yHCowIfkqHj-24" value="" style="sketch=0;outlineConnect=0;fontColor=#232F3E;gradientColor=none;fillColor=#8C4FFF;strokeColor=none;dashed=0;verticalLabelPosition=bottom;verticalAlign=top;align=center;html=1;fontSize=12;fontStyle=0;aspect=fixed;pointerEvents=1;shape=mxgraph.aws4.internet_gateway;" vertex="1" parent="7SaJIltF-yHCowIfkqHj-1">
          <mxGeometry x="-25" y="225.5" width="48" height="48" as="geometry" />
        </mxCell>
        <mxCell id="7SaJIltF-yHCowIfkqHj-26" value="" style="sketch=0;outlineConnect=0;fontColor=#232F3E;gradientColor=none;fillColor=#8C4FFF;strokeColor=none;dashed=0;verticalLabelPosition=bottom;verticalAlign=top;align=center;html=1;fontSize=12;fontStyle=0;aspect=fixed;pointerEvents=1;shape=mxgraph.aws4.route_table;" vertex="1" parent="7SaJIltF-yHCowIfkqHj-1">
          <mxGeometry x="145" y="225.49999999999997" width="27" height="26.31" as="geometry" />
        </mxCell>
        <mxCell id="7SaJIltF-yHCowIfkqHj-27" value="" style="outlineConnect=0;dashed=0;verticalLabelPosition=bottom;verticalAlign=top;align=center;html=1;shape=mxgraph.aws3.route_table;fillColor=#F58536;gradientColor=none;" vertex="1" parent="7SaJIltF-yHCowIfkqHj-1">
          <mxGeometry x="318" y="235.42000000000002" width="30" height="23.16" as="geometry" />
        </mxCell>
        <mxCell id="7SaJIltF-yHCowIfkqHj-28" value="" style="outlineConnect=0;dashed=0;verticalLabelPosition=bottom;verticalAlign=top;align=center;html=1;shape=mxgraph.aws3.route_table;fillColor=#F58536;gradientColor=none;" vertex="1" parent="7SaJIltF-yHCowIfkqHj-1">
          <mxGeometry x="492" y="238.42" width="30" height="23.16" as="geometry" />
        </mxCell>
        <mxCell id="7SaJIltF-yHCowIfkqHj-31" value="" style="endArrow=classic;html=1;rounded=0;" edge="1" parent="7SaJIltF-yHCowIfkqHj-1" source="7SaJIltF-yHCowIfkqHj-26" target="7SaJIltF-yHCowIfkqHj-24">
          <mxGeometry width="50" height="50" relative="1" as="geometry">
            <mxPoint x="180" y="250" as="sourcePoint" />
            <mxPoint x="198" y="210" as="targetPoint" />
            <Array as="points" />
          </mxGeometry>
        </mxCell>
        <mxCell id="7SaJIltF-yHCowIfkqHj-34" value="&lt;font style=&quot;font-size: 11px;&quot;&gt;NAT Gateway&lt;/font&gt;" style="text;html=1;align=center;verticalAlign=middle;resizable=0;points=[];autosize=1;strokeColor=none;fillColor=none;" vertex="1" parent="7SaJIltF-yHCowIfkqHj-1">
          <mxGeometry x="130" y="311" width="90" height="30" as="geometry" />
        </mxCell>
        <mxCell id="7SaJIltF-yHCowIfkqHj-35" value="" style="outlineConnect=0;dashed=0;verticalLabelPosition=bottom;verticalAlign=top;align=center;html=1;shape=mxgraph.aws3.vpc_nat_gateway;fillColor=#F58536;gradientColor=none;" vertex="1" parent="7SaJIltF-yHCowIfkqHj-1">
          <mxGeometry x="161.5" y="333" width="29" height="32" as="geometry" />
        </mxCell>
        <mxCell id="7SaJIltF-yHCowIfkqHj-40" value="&lt;font style=&quot;font-size: 10px;&quot;&gt;Public&lt;br&gt;RTB&lt;/font&gt;" style="text;html=1;align=center;verticalAlign=middle;resizable=0;points=[];autosize=1;strokeColor=none;fillColor=none;" vertex="1" parent="7SaJIltF-yHCowIfkqHj-1">
          <mxGeometry x="161" y="219" width="50" height="40" as="geometry" />
        </mxCell>
        <mxCell id="7SaJIltF-yHCowIfkqHj-41" value="&lt;font style=&quot;font-size: 10px;&quot;&gt;Private RTB AZ1&lt;/font&gt;" style="text;html=1;align=center;verticalAlign=middle;resizable=0;points=[];autosize=1;strokeColor=none;fillColor=none;" vertex="1" parent="7SaJIltF-yHCowIfkqHj-1">
          <mxGeometry x="279" y="251" width="100" height="30" as="geometry" />
        </mxCell>
        <mxCell id="7SaJIltF-yHCowIfkqHj-42" value="" style="endArrow=classic;html=1;rounded=0;entryX=0.855;entryY=0.855;entryDx=0;entryDy=0;entryPerimeter=0;exitX=0;exitY=0.5;exitDx=0;exitDy=0;exitPerimeter=0;" edge="1" parent="7SaJIltF-yHCowIfkqHj-1" source="7SaJIltF-yHCowIfkqHj-27" target="7SaJIltF-yHCowIfkqHj-32">
          <mxGeometry width="50" height="50" relative="1" as="geometry">
            <mxPoint x="350" y="250" as="sourcePoint" />
            <mxPoint x="213" y="258" as="targetPoint" />
            <Array as="points" />
          </mxGeometry>
        </mxCell>
        <mxCell id="7SaJIltF-yHCowIfkqHj-43" value="&lt;font style=&quot;font-size: 10px;&quot;&gt;Private RTB AZ2&lt;/font&gt;" style="text;html=1;align=center;verticalAlign=middle;resizable=0;points=[];autosize=1;strokeColor=none;fillColor=none;" vertex="1" parent="7SaJIltF-yHCowIfkqHj-1">
          <mxGeometry x="458" y="217" width="100" height="30" as="geometry" />
        </mxCell>
        <mxCell id="7SaJIltF-yHCowIfkqHj-45" value="" style="endArrow=classic;html=1;rounded=0;" edge="1" parent="7SaJIltF-yHCowIfkqHj-1" source="7SaJIltF-yHCowIfkqHj-28" target="7SaJIltF-yHCowIfkqHj-35">
          <mxGeometry width="50" height="50" relative="1" as="geometry">
            <mxPoint x="510" y="250" as="sourcePoint" />
            <mxPoint x="207" y="220" as="targetPoint" />
            <Array as="points">
              <mxPoint x="290" y="290" />
            </Array>
          </mxGeometry>
        </mxCell>
        <mxCell id="7SaJIltF-yHCowIfkqHj-68" value="" style="endArrow=classic;html=1;rounded=0;" edge="1" parent="7SaJIltF-yHCowIfkqHj-1" source="7SaJIltF-yHCowIfkqHj-35" target="7SaJIltF-yHCowIfkqHj-24">
          <mxGeometry width="50" height="50" relative="1" as="geometry">
            <mxPoint x="10" y="350" as="sourcePoint" />
            <mxPoint x="60" y="300" as="targetPoint" />
            <Array as="points">
              <mxPoint x="40" y="350" />
            </Array>
          </mxGeometry>
        </mxCell>
        <mxCell id="7SaJIltF-yHCowIfkqHj-69" value="" style="endArrow=classic;html=1;rounded=0;" edge="1" parent="7SaJIltF-yHCowIfkqHj-1" source="7SaJIltF-yHCowIfkqHj-32" target="7SaJIltF-yHCowIfkqHj-24">
          <mxGeometry width="50" height="50" relative="1" as="geometry">
            <mxPoint x="60" y="180" as="sourcePoint" />
            <mxPoint x="110" y="130" as="targetPoint" />
          </mxGeometry>
        </mxCell>
        <mxCell id="7SaJIltF-yHCowIfkqHj-108" value="" style="endArrow=classic;startArrow=classic;html=1;rounded=0;entryX=0.313;entryY=-0.15;entryDx=0;entryDy=0;entryPerimeter=0;exitX=0.793;exitY=0.742;exitDx=0;exitDy=0;exitPerimeter=0;fillColor=#d80073;strokeColor=#A50040;strokeWidth=2;" edge="1" parent="7SaJIltF-yHCowIfkqHj-1">
          <mxGeometry width="50" height="50" relative="1" as="geometry">
            <mxPoint x="246.99700000000007" y="265.58199999999994" as="sourcePoint" />
            <mxPoint x="387.03999999999996" y="329.58" as="targetPoint" />
            <Array as="points">
              <mxPoint x="280" y="265.58" />
              <mxPoint x="280" y="330" />
            </Array>
          </mxGeometry>
        </mxCell>
        <mxCell id="7SaJIltF-yHCowIfkqHj-25" value="Internet&lt;br&gt;Gateway" style="text;html=1;align=center;verticalAlign=middle;resizable=0;points=[];autosize=1;strokeColor=none;fillColor=none;" vertex="1" parent="1">
          <mxGeometry x="39" y="337" width="70" height="40" as="geometry" />
        </mxCell>
        <mxCell id="7SaJIltF-yHCowIfkqHj-48" value="&lt;font style=&quot;font-size: 8px;&quot;&gt;Amazon Route 53&lt;/font&gt;" style="sketch=0;outlineConnect=0;fontColor=#232F3E;gradientColor=none;strokeColor=#ffffff;fillColor=#232F3E;dashed=0;verticalLabelPosition=middle;verticalAlign=bottom;align=center;html=1;whiteSpace=wrap;fontSize=10;fontStyle=1;spacing=3;shape=mxgraph.aws4.productIcon;prIcon=mxgraph.aws4.route_53;movableLabel=1;" vertex="1" parent="1">
          <mxGeometry x="17" y="207" width="40" height="80" as="geometry">
            <mxPoint y="-13" as="offset" />
          </mxGeometry>
        </mxCell>
        <mxCell id="7SaJIltF-yHCowIfkqHj-56" value="&lt;font style=&quot;font-size: 11px;&quot;&gt;End Users&lt;/font&gt;" style="sketch=0;outlineConnect=0;fontColor=#232F3E;gradientColor=none;strokeColor=#232F3E;fillColor=#ffffff;dashed=0;verticalLabelPosition=bottom;verticalAlign=top;align=center;html=1;fontSize=12;fontStyle=0;aspect=fixed;shape=mxgraph.aws4.resourceIcon;resIcon=mxgraph.aws4.users;movableLabel=1;" vertex="1" parent="1">
          <mxGeometry x="20" y="53" width="40" height="40" as="geometry" />
        </mxCell>
        <mxCell id="7SaJIltF-yHCowIfkqHj-61" value="" style="rounded=1;whiteSpace=wrap;html=1;dashed=1;rotation=-90;opacity=40;strokeColor=#ff33b4;strokeWidth=3;dashPattern=1 1;" vertex="1" parent="1">
          <mxGeometry x="262.54" y="298.17" width="136.92" height="40" as="geometry" />
        </mxCell>
        <mxCell id="7SaJIltF-yHCowIfkqHj-63" value="" style="outlineConnect=0;dashed=0;verticalLabelPosition=bottom;verticalAlign=top;align=center;html=1;shape=mxgraph.aws3.application_load_balancer;fillColor=#F58534;gradientColor=none;" vertex="1" parent="1">
          <mxGeometry x="317" y="313" width="29" height="31" as="geometry" />
        </mxCell>
        <mxCell id="7SaJIltF-yHCowIfkqHj-66" value="ALB" style="text;html=1;align=center;verticalAlign=middle;resizable=0;points=[];autosize=1;strokeColor=none;fillColor=none;" vertex="1" parent="1">
          <mxGeometry x="306" y="291" width="50" height="30" as="geometry" />
        </mxCell>
        <mxCell id="7SaJIltF-yHCowIfkqHj-71" value="" style="rounded=1;whiteSpace=wrap;html=1;dashed=1;rotation=-90;opacity=40;strokeColor=#ff33b4;strokeWidth=3;dashPattern=1 1;" vertex="1" parent="1">
          <mxGeometry x="369.21" y="293.98" width="262.59" height="50.97" as="geometry" />
        </mxCell>
        <mxCell id="7SaJIltF-yHCowIfkqHj-73" value="" style="sketch=0;points=[[0,0,0],[0.25,0,0],[0.5,0,0],[0.75,0,0],[1,0,0],[0,1,0],[0.25,1,0],[0.5,1,0],[0.75,1,0],[1,1,0],[0,0.25,0],[0,0.5,0],[0,0.75,0],[1,0.25,0],[1,0.5,0],[1,0.75,0]];outlineConnect=0;fontColor=#232F3E;fillColor=#ED7100;strokeColor=#ffffff;dashed=0;verticalLabelPosition=bottom;verticalAlign=top;align=center;html=1;fontSize=12;fontStyle=0;aspect=fixed;shape=mxgraph.aws4.resourceIcon;resIcon=mxgraph.aws4.auto_scaling2;" vertex="1" parent="1">
          <mxGeometry x="485" y="303" width="31.27" height="31.27" as="geometry" />
        </mxCell>
        <mxCell id="7SaJIltF-yHCowIfkqHj-74" value="ASG" style="text;html=1;align=center;verticalAlign=middle;resizable=0;points=[];autosize=1;strokeColor=none;fillColor=none;" vertex="1" parent="1">
          <mxGeometry x="505" y="305" width="50" height="30" as="geometry" />
        </mxCell>
        <mxCell id="7SaJIltF-yHCowIfkqHj-75" value="" style="sketch=0;points=[[0,0,0],[0.25,0,0],[0.5,0,0],[0.75,0,0],[1,0,0],[0,1,0],[0.25,1,0],[0.5,1,0],[0.75,1,0],[1,1,0],[0,0.25,0],[0,0.5,0],[0,0.75,0],[1,0.25,0],[1,0.5,0],[1,0.75,0]];outlineConnect=0;fontColor=#232F3E;fillColor=#ED7100;strokeColor=#ffffff;dashed=0;verticalLabelPosition=bottom;verticalAlign=top;align=center;html=1;fontSize=12;fontStyle=0;aspect=fixed;shape=mxgraph.aws4.resourceIcon;resIcon=mxgraph.aws4.ec2;" vertex="1" parent="1">
          <mxGeometry x="486" y="215" width="30" height="30" as="geometry" />
        </mxCell>
        <mxCell id="7SaJIltF-yHCowIfkqHj-76" value="&lt;font style=&quot;font-size: 11px;&quot;&gt;Application&lt;br&gt;Server&lt;/font&gt;" style="text;html=1;align=center;verticalAlign=middle;resizable=0;points=[];autosize=1;strokeColor=none;fillColor=none;" vertex="1" parent="1">
          <mxGeometry x="460" y="239" width="80" height="40" as="geometry" />
        </mxCell>
        <mxCell id="7SaJIltF-yHCowIfkqHj-77" value="" style="sketch=0;points=[[0,0,0],[0.25,0,0],[0.5,0,0],[0.75,0,0],[1,0,0],[0,1,0],[0.25,1,0],[0.5,1,0],[0.75,1,0],[1,1,0],[0,0.25,0],[0,0.5,0],[0,0.75,0],[1,0.25,0],[1,0.5,0],[1,0.75,0]];outlineConnect=0;fontColor=#232F3E;fillColor=#ED7100;strokeColor=#ffffff;dashed=0;verticalLabelPosition=bottom;verticalAlign=top;align=center;html=1;fontSize=12;fontStyle=0;aspect=fixed;shape=mxgraph.aws4.resourceIcon;resIcon=mxgraph.aws4.ec2;" vertex="1" parent="1">
          <mxGeometry x="485" y="384" width="30" height="30" as="geometry" />
        </mxCell>
        <mxCell id="7SaJIltF-yHCowIfkqHj-78" value="&lt;font style=&quot;font-size: 11px;&quot;&gt;Application&lt;br&gt;Server&lt;/font&gt;" style="text;html=1;align=center;verticalAlign=middle;resizable=0;points=[];autosize=1;strokeColor=none;fillColor=none;" vertex="1" parent="1">
          <mxGeometry x="460" y="409" width="80" height="40" as="geometry" />
        </mxCell>
        <mxCell id="7SaJIltF-yHCowIfkqHj-81" value="" style="endArrow=classic;startArrow=classic;html=1;rounded=0;fillColor=#d80073;strokeColor=#A50040;strokeWidth=2;" edge="1" parent="1" target="7SaJIltF-yHCowIfkqHj-63">
          <mxGeometry width="50" height="50" relative="1" as="geometry">
            <mxPoint x="120" y="330" as="sourcePoint" />
            <mxPoint x="227" y="328.679012345679" as="targetPoint" />
          </mxGeometry>
        </mxCell>
        <mxCell id="7SaJIltF-yHCowIfkqHj-82" value="" style="shape=waypoint;sketch=0;fillStyle=solid;size=6;pointerEvents=1;points=[];fillColor=none;resizable=0;rotatable=0;perimeter=centerPerimeter;snapToPoint=1;" vertex="1" parent="1">
          <mxGeometry x="250" y="250" width="20" height="20" as="geometry" />
        </mxCell>
        <mxCell id="7SaJIltF-yHCowIfkqHj-83" value="" style="shape=waypoint;sketch=0;fillStyle=solid;size=6;pointerEvents=1;points=[];fillColor=none;resizable=0;rotatable=0;perimeter=centerPerimeter;snapToPoint=1;" vertex="1" parent="1">
          <mxGeometry x="249" y="365" width="20" height="20" as="geometry" />
        </mxCell>
        <mxCell id="7SaJIltF-yHCowIfkqHj-84" value="" style="endArrow=none;html=1;rounded=0;entryX=0.55;entryY=0.95;entryDx=0;entryDy=0;entryPerimeter=0;exitX=0.556;exitY=0.057;exitDx=0;exitDy=0;exitPerimeter=0;" edge="1" parent="1" source="7SaJIltF-yHCowIfkqHj-26" target="7SaJIltF-yHCowIfkqHj-82">
          <mxGeometry width="50" height="50" relative="1" as="geometry">
            <mxPoint x="250" y="350" as="sourcePoint" />
            <mxPoint x="300" y="300" as="targetPoint" />
          </mxGeometry>
        </mxCell>
        <mxCell id="7SaJIltF-yHCowIfkqHj-85" value="" style="endArrow=none;html=1;rounded=0;exitX=0.556;exitY=0.057;exitDx=0;exitDy=0;exitPerimeter=0;" edge="1" parent="1" target="7SaJIltF-yHCowIfkqHj-26">
          <mxGeometry width="50" height="50" relative="1" as="geometry">
            <mxPoint x="259" y="375" as="sourcePoint" />
            <mxPoint x="259" y="338" as="targetPoint" />
          </mxGeometry>
        </mxCell>
        <mxCell id="7SaJIltF-yHCowIfkqHj-86" value="" style="shape=waypoint;sketch=0;fillStyle=solid;size=6;pointerEvents=1;points=[];fillColor=none;resizable=0;rotatable=0;perimeter=centerPerimeter;snapToPoint=1;" vertex="1" parent="1">
          <mxGeometry x="423" y="249" width="20" height="20" as="geometry" />
        </mxCell>
        <mxCell id="7SaJIltF-yHCowIfkqHj-88" value="" style="endArrow=none;html=1;rounded=0;exitX=0.556;exitY=0.057;exitDx=0;exitDy=0;exitPerimeter=0;" edge="1" parent="1">
          <mxGeometry width="50" height="50" relative="1" as="geometry">
            <mxPoint x="433" y="306" as="sourcePoint" />
            <mxPoint x="433" y="258" as="targetPoint" />
          </mxGeometry>
        </mxCell>
        <mxCell id="7SaJIltF-yHCowIfkqHj-89" value="" style="shape=waypoint;sketch=0;fillStyle=solid;size=6;pointerEvents=1;points=[];fillColor=none;resizable=0;rotatable=0;perimeter=centerPerimeter;snapToPoint=1;" vertex="1" parent="1">
          <mxGeometry x="585" y="246" width="20" height="20" as="geometry" />
        </mxCell>
        <mxCell id="7SaJIltF-yHCowIfkqHj-90" value="" style="endArrow=none;html=1;rounded=0;" edge="1" parent="1" source="7SaJIltF-yHCowIfkqHj-27">
          <mxGeometry width="50" height="50" relative="1" as="geometry">
            <mxPoint x="543" y="307" as="sourcePoint" />
            <mxPoint x="593" y="257" as="targetPoint" />
          </mxGeometry>
        </mxCell>
        <mxCell id="7SaJIltF-yHCowIfkqHj-91" value="" style="shape=waypoint;sketch=0;fillStyle=solid;size=6;pointerEvents=1;points=[];fillColor=none;resizable=0;rotatable=0;perimeter=centerPerimeter;snapToPoint=1;" vertex="1" parent="1">
          <mxGeometry x="599" y="367" width="20" height="20" as="geometry" />
        </mxCell>
        <mxCell id="7SaJIltF-yHCowIfkqHj-92" value="" style="endArrow=none;html=1;rounded=0;exitX=0.556;exitY=0.057;exitDx=0;exitDy=0;exitPerimeter=0;" edge="1" parent="1">
          <mxGeometry width="50" height="50" relative="1" as="geometry">
            <mxPoint x="609" y="379" as="sourcePoint" />
            <mxPoint x="609" y="331" as="targetPoint" />
          </mxGeometry>
        </mxCell>
        <mxCell id="7SaJIltF-yHCowIfkqHj-93" value="" style="shape=waypoint;sketch=0;fillStyle=solid;size=6;pointerEvents=1;points=[];fillColor=none;resizable=0;rotatable=0;perimeter=centerPerimeter;snapToPoint=1;" vertex="1" parent="1">
          <mxGeometry x="522" y="370" width="20" height="20" as="geometry" />
        </mxCell>
        <mxCell id="7SaJIltF-yHCowIfkqHj-94" value="" style="endArrow=none;html=1;rounded=0;exitX=1.1;exitY=0.5;exitDx=0;exitDy=0;exitPerimeter=0;" edge="1" parent="1" source="7SaJIltF-yHCowIfkqHj-93" target="7SaJIltF-yHCowIfkqHj-28">
          <mxGeometry width="50" height="50" relative="1" as="geometry">
            <mxPoint x="559" y="389" as="sourcePoint" />
            <mxPoint x="559" y="341" as="targetPoint" />
          </mxGeometry>
        </mxCell>
        <mxCell id="7SaJIltF-yHCowIfkqHj-95" value="" style="endArrow=classic;startArrow=classic;html=1;rounded=0;" edge="1" parent="1">
          <mxGeometry width="50" height="50" relative="1" as="geometry">
            <mxPoint x="75" y="320" as="sourcePoint" />
            <mxPoint x="35" y="270" as="targetPoint" />
            <Array as="points">
              <mxPoint x="35" y="320" />
            </Array>
          </mxGeometry>
        </mxCell>
        <mxCell id="7SaJIltF-yHCowIfkqHj-96" value="" style="endArrow=classic;startArrow=classic;html=1;rounded=0;" edge="1" parent="1">
          <mxGeometry width="50" height="50" relative="1" as="geometry">
            <mxPoint x="35" y="204" as="sourcePoint" />
            <mxPoint x="35" y="114" as="targetPoint" />
          </mxGeometry>
        </mxCell>
        <mxCell id="7SaJIltF-yHCowIfkqHj-97" value="" style="rounded=1;whiteSpace=wrap;html=1;dashed=1;rotation=-90;opacity=40;strokeColor=#ff33b4;strokeWidth=3;dashPattern=1 1;" vertex="1" parent="1">
          <mxGeometry x="557.81" y="297.72" width="245.37" height="50.97" as="geometry" />
        </mxCell>
        <mxCell id="7SaJIltF-yHCowIfkqHj-98" value="Amazon RDS" style="sketch=0;outlineConnect=0;fontColor=#232F3E;gradientColor=none;strokeColor=#ffffff;fillColor=#232F3E;dashed=0;verticalLabelPosition=middle;verticalAlign=bottom;align=center;html=1;whiteSpace=wrap;fontSize=10;fontStyle=1;spacing=3;shape=mxgraph.aws4.productIcon;prIcon=mxgraph.aws4.rds;" vertex="1" parent="1">
          <mxGeometry x="665" y="216" width="31" height="65" as="geometry" />
        </mxCell>
        <mxCell id="7SaJIltF-yHCowIfkqHj-99" value="Amazon RDS" style="sketch=0;outlineConnect=0;fontColor=#232F3E;gradientColor=none;strokeColor=#ffffff;fillColor=#232F3E;dashed=0;verticalLabelPosition=middle;verticalAlign=bottom;align=center;html=1;whiteSpace=wrap;fontSize=10;fontStyle=1;spacing=3;shape=mxgraph.aws4.productIcon;prIcon=mxgraph.aws4.rds;" vertex="1" parent="1">
          <mxGeometry x="665" y="374" width="31" height="65" as="geometry" />
        </mxCell>
        <mxCell id="7SaJIltF-yHCowIfkqHj-100" value="&lt;font style=&quot;font-size: 10px;&quot;&gt;10.0.0.0/24&lt;/font&gt;" style="text;html=1;align=center;verticalAlign=middle;resizable=0;points=[];autosize=1;strokeColor=none;fillColor=none;" vertex="1" parent="1">
          <mxGeometry x="210" y="144" width="70" height="30" as="geometry" />
        </mxCell>
        <mxCell id="7SaJIltF-yHCowIfkqHj-101" value="&lt;font style=&quot;font-size: 10px;&quot;&gt;10.0.1.0/24&lt;/font&gt;" style="text;html=1;align=center;verticalAlign=middle;resizable=0;points=[];autosize=1;strokeColor=none;fillColor=none;" vertex="1" parent="1">
          <mxGeometry x="210" y="460" width="70" height="30" as="geometry" />
        </mxCell>
        <mxCell id="7SaJIltF-yHCowIfkqHj-102" value="&lt;font style=&quot;font-size: 10px;&quot;&gt;10.0.3.0/24&lt;/font&gt;" style="text;html=1;align=center;verticalAlign=middle;resizable=0;points=[];autosize=1;strokeColor=none;fillColor=none;" vertex="1" parent="1">
          <mxGeometry x="390" y="459" width="70" height="30" as="geometry" />
        </mxCell>
        <mxCell id="7SaJIltF-yHCowIfkqHj-103" value="&lt;font style=&quot;font-size: 10px;&quot;&gt;10.0.2.0/24&lt;/font&gt;" style="text;html=1;align=center;verticalAlign=middle;resizable=0;points=[];autosize=1;strokeColor=none;fillColor=none;" vertex="1" parent="1">
          <mxGeometry x="388" y="143" width="70" height="30" as="geometry" />
        </mxCell>
        <mxCell id="7SaJIltF-yHCowIfkqHj-104" value="&lt;font style=&quot;font-size: 10px;&quot;&gt;10.0.4.0/24&lt;/font&gt;" style="text;html=1;align=center;verticalAlign=middle;resizable=0;points=[];autosize=1;strokeColor=none;fillColor=none;" vertex="1" parent="1">
          <mxGeometry x="601" y="168" width="70" height="30" as="geometry" />
        </mxCell>
        <mxCell id="7SaJIltF-yHCowIfkqHj-105" value="&lt;font style=&quot;font-size: 10px;&quot;&gt;10.0.5.0/24&lt;/font&gt;" style="text;html=1;align=center;verticalAlign=middle;resizable=0;points=[];autosize=1;strokeColor=none;fillColor=none;" vertex="1" parent="1">
          <mxGeometry x="570" y="459" width="70" height="30" as="geometry" />
        </mxCell>
        <mxCell id="7SaJIltF-yHCowIfkqHj-106" value="" style="endArrow=classic;startArrow=classic;html=1;rounded=0;exitX=0.406;exitY=0.95;exitDx=0;exitDy=0;exitPerimeter=0;fillColor=#d80073;strokeColor=#A50040;strokeWidth=2;" edge="1" parent="1" target="7SaJIltF-yHCowIfkqHj-75">
          <mxGeometry width="50" height="50" relative="1" as="geometry">
            <mxPoint x="345" y="321.0404800000001" as="sourcePoint" />
            <mxPoint x="482" y="220" as="targetPoint" />
            <Array as="points">
              <mxPoint x="376" y="321" />
              <mxPoint x="376" y="230" />
            </Array>
          </mxGeometry>
        </mxCell>
        <mxCell id="7SaJIltF-yHCowIfkqHj-109" value="EKS" style="text;html=1;align=center;verticalAlign=middle;resizable=0;points=[];autosize=1;strokeColor=none;fillColor=none;" vertex="1" parent="1">
          <mxGeometry x="481" y="188" width="50" height="30" as="geometry" />
        </mxCell>
        <mxCell id="7SaJIltF-yHCowIfkqHj-110" value="" style="sketch=0;outlineConnect=0;fontColor=#232F3E;gradientColor=none;strokeColor=#ffffff;fillColor=#232F3E;dashed=0;verticalLabelPosition=middle;verticalAlign=bottom;align=center;html=1;whiteSpace=wrap;fontSize=10;fontStyle=1;spacing=3;shape=mxgraph.aws4.productIcon;prIcon=mxgraph.aws4.eks;" vertex="1" parent="1">
          <mxGeometry x="493" y="207" width="26" height="30" as="geometry" />
        </mxCell>
        <mxCell id="7SaJIltF-yHCowIfkqHj-111" value="" style="sketch=0;outlineConnect=0;fontColor=#232F3E;gradientColor=none;strokeColor=#ffffff;fillColor=#232F3E;dashed=0;verticalLabelPosition=middle;verticalAlign=bottom;align=center;html=1;whiteSpace=wrap;fontSize=10;fontStyle=1;spacing=3;shape=mxgraph.aws4.productIcon;prIcon=mxgraph.aws4.eks;" vertex="1" parent="1">
          <mxGeometry x="491" y="375" width="26" height="30" as="geometry" />
        </mxCell>
        <mxCell id="7SaJIltF-yHCowIfkqHj-112" value="EKS" style="text;html=1;align=center;verticalAlign=middle;resizable=0;points=[];autosize=1;strokeColor=none;fillColor=none;" vertex="1" parent="1">
          <mxGeometry x="479" y="355" width="50" height="30" as="geometry" />
        </mxCell>
      </root>
    </mxGraphModel>
  </diagram>
</mxfile>
